<svg xmlns="http://www.w3.org/2000/svg" viewBox="0 0 536.74 418.95"><title>Asset 3</title><g id="Layer_2" data-name="Layer 2"><g id="Layer_1-2" data-name="Layer 1"><path d="M261.35,110.37,91.8,250V400.73a14.72,14.72,0,0,0,14.71,14.72l103.06-.27a14.72,14.72,0,0,0,14.64-14.72v-88a14.71,14.71,0,0,1,14.71-14.72h58.86a14.72,14.72,0,0,1,14.71,14.72V400.4a14.7,14.7,0,0,0,14.67,14.76h0l103,.29a14.71,14.71,0,0,0,14.71-14.72V249.91L275.42,110.37a11.21,11.21,0,0,0-14.07,0Zm267.82,94.91-76.88-63.37V14.54a11,11,0,0,0-11-11h-51.5a11,11,0,0,0-11,11V81.31L296.39,13.57a44.14,44.14,0,0,0-56.1,0L7.51,205.28A11,11,0,0,0,6,220.82H6l23.45,28.5A11,11,0,0,0,45,250.85l0,0L261.35,72.66a11.24,11.24,0,0,1,14.07,0L491.74,250.83a11,11,0,0,0,15.54-1.46h0l23.45-28.51a11,11,0,0,0-1.51-15.53l-.05,0Z" style="fill:#fff;stroke:#000;stroke-miterlimit:10;stroke-width:7px"/></g></g></svg>