<svg xmlns="http://www.w3.org/2000/svg" viewBox="0 0 368.67 323.3"><title>Asset 1</title><g id="Layer_2" data-name="Layer 2"><g id="Layer_1-2" data-name="Layer 1"><path d="M15.8,61.18H352.87a13,13,0,0,0,13-13V15.8a13,13,0,0,0-13-13H15.8a13,13,0,0,0-13,13V48.21A13,13,0,0,0,15.8,61.18Zm0,129.64H352.87a13,13,0,0,0,13-13V145.44a13,13,0,0,0-13-13H15.8a13,13,0,0,0-13,13v32.41A13,13,0,0,0,15.8,190.82Zm0,129.64H352.87a13,13,0,0,0,13-13V275.09a13,13,0,0,0-13-13H15.8a13,13,0,0,0-13,13V307.5A13,13,0,0,0,15.8,320.46Z" style="fill:#fff;stroke:#000;stroke-miterlimit:10;stroke-width:5.671875059604645px"/></g></g></svg>