<svg enable-background="new 0 0 135 135" version="1.1" viewBox="0 0 135 135" xml:space="preserve" xmlns="http://www.w3.org/2000/svg">
<defs>
<style type="text/css">
	.st0{fill:#FFFFFF;}
	.st1{fill:#33363A;}
	.st2{fill:none;}
	.st3{fill:#A7BBC1;}
</style>
</defs>
		<path class="st0" d="m93.3 43.8c0-6.3-2.3-12.1-6.1-16.6v-11.1c0-1.1-0.4-2.1-1.2-2.9-4.9-5.1-11.5-7.9-18.5-7.9-14.2 0-25.8 11.6-25.8 25.8 0 0.8 0 1.6 0.1 2.5-0.1 0.3-0.1 0.7-0.1 1.1v78.4c0 1.5 0.8 2.9 2.1 3.6l21.6 12.5c0.6 0.4 1.4 0.6 2.1 0.6s1.4-0.2 2.1-0.6l15.5-9c1.3-0.7 2.1-2.1 2.1-3.6v-56.2c3.8-4.5 6.1-10.3 6.1-16.6z"/>
		<path class="st1" d="m67.5 131.2c-1 0-2-0.3-2.8-0.8l-21.6-12.4c-1.8-1-2.8-2.9-2.8-4.9v-78.5c0-0.4 0-0.8 0.1-1.2-0.1-0.8-0.1-1.6-0.1-2.4 0-15 12.2-27.3 27.3-27.3 7.4 0 14.4 3 19.6 8.3 1 1.1 1.6 2.5 1.6 4v10.6c3.9 4.8 6.1 10.9 6.1 17.1s-2.2 12.3-6.1 17.1v55.7c0 2-1.1 3.9-2.8 4.9l-15.5 9c-1 0.6-2 0.8-3 0.8zm0-124.4c-13.4 0-24.3 10.9-24.3 24.3 0 0.8 0 1.5 0.1 2.3v0.5c-0.1 0.2-0.1 0.5-0.1 0.7v78.4c0 1 0.5 1.8 1.3 2.3l21.6 12.5c0.8 0.5 1.9 0.5 2.7 0l15.5-9c0.8-0.5 1.3-1.4 1.3-2.3v-56.1c0-0.4 0.1-0.7 0.4-1 3.7-4.4 5.7-9.9 5.7-15.6s-2-11.3-5.7-15.6c-0.2-0.3-0.4-0.6-0.4-1v-11.1c0-0.7-0.3-1.4-0.8-1.9-4.5-4.8-10.7-7.4-17.3-7.4z"/>
			<circle class="st2" cx="67.5" cy="43" r="14.4"/>
			<path class="st0" d="M53.1,43c0,7.9,6.4,14.4,14.4,14.4S81.9,50.9,81.9,43H53.1z"/>
			<path class="st2" d="m67.5 54c7.9 0 14.4-4.9 14.4-11h-28.8c0 6.1 6.5 11 14.4 11z"/>
			<path class="st1" d="m67.5 58.9c-8.8 0-15.9-7.1-15.9-15.9s7.1-15.9 15.9-15.9 15.9 7.1 15.9 15.9-7.1 15.9-15.9 15.9zm0-28.8c-7.1 0-12.9 5.8-12.9 12.9s5.8 12.9 12.9 12.9 12.9-5.8 12.9-12.9-5.8-12.9-12.9-12.9z"/>
			<path class="st1" d="m81.9 44.5h-28.8c-0.8 0-1.5-0.7-1.5-1.5s0.7-1.5 1.5-1.5h28.8c0.8 0 1.5 0.7 1.5 1.5s-0.7 1.5-1.5 1.5z"/>
				<circle class="st3" cx="67.5" cy="44.6" r="4.8"/>
				<circle class="st0" cx="67.5" cy="43" r="4.8"/>
				<path class="st2" d="m64.1 46.4c-1.9-1.9-1.9-4.9 0-6.7 1.9-1.9 4.9-1.9 6.7 0"/>
				<path class="st1" d="m67.5 49.3c-1.7 0-3.2-0.7-4.4-1.8-2.4-2.4-2.4-6.4 0-8.8 1.2-1.2 2.8-1.8 4.4-1.8s3.2 0.7 4.4 1.8c2.4 2.4 2.4 6.4 0 8.8-1.2 1.1-2.7 1.8-4.4 1.8zm0-9.5c-0.9 0-1.7 0.3-2.3 1-1.3 1.3-1.3 3.3 0 4.6 1.2 1.2 3.4 1.2 4.6 0 1.3-1.3 1.3-3.3 0-4.6-0.6-0.7-1.4-1-2.3-1z"/>
			<path class="st1" d="m67.5 67.5c-0.8 0-1.5-0.7-1.5-1.5v-7.1c0-0.8 0.7-1.5 1.5-1.5s1.5 0.7 1.5 1.5v7.1c0 0.8-0.7 1.5-1.5 1.5z"/>
			<path class="st1" d="m67.5 28.6c-0.8 0-1.5-0.7-1.5-1.5v-7.1c0-0.8 0.7-1.5 1.5-1.5s1.5 0.7 1.5 1.5v7.1c0 0.8-0.7 1.5-1.5 1.5z"/>
		<path class="st1" d="m52.5 91.7c-2.1 0-3.8-1.7-3.8-3.8s1.7-3.8 3.8-3.8 3.8 1.7 3.8 3.8-1.7 3.8-3.8 3.8zm0-4.6c-0.4 0-0.8 0.4-0.8 0.8s0.4 0.8 0.8 0.8 0.8-0.4 0.8-0.8-0.3-0.8-0.8-0.8z"/>
		<path class="st1" d="m54.8 100.7h-4.6c-0.8 0-1.5-0.7-1.5-1.5s0.7-1.5 1.5-1.5h4.6c0.8 0 1.5 0.7 1.5 1.5s-0.7 1.5-1.5 1.5z"/>
		<path class="st1" d="m54.8 107.5h-4.6c-0.8 0-1.5-0.7-1.5-1.5s0.7-1.5 1.5-1.5h4.6c0.8 0 1.5 0.7 1.5 1.5s-0.7 1.5-1.5 1.5z"/>
</svg>
